<?xml version="1.0" encoding="UTF-8"?>
<svg xmlns="http://www.w3.org/2000/svg" width="100" height="100" viewBox="0 0 100 100">
  <defs>
    <!-- 主文档渐变 -->
    <linearGradient id="docGradient" x1="0%" y1="0%" x2="100%" y2="100%">
      <stop offset="0%" stop-color="#4F46E5" />
      <stop offset="100%" stop-color="#7C3AED" />
    </linearGradient>
    
    <!-- 阴影渐变 -->
    <linearGradient id="shadowGradient" x1="0%" y1="0%" x2="100%" y2="100%">
      <stop offset="0%" stop-color="#1E1B4B" opacity="0.3" />
      <stop offset="100%" stop-color="#581C87" opacity="0.1" />
    </linearGradient>
    
    <!-- 内容区域渐变 -->
    <linearGradient id="contentGradient" x1="0%" y1="0%" x2="0%" y2="100%">
      <stop offset="0%" stop-color="#FFFFFF" opacity="0.95" />
      <stop offset="100%" stop-color="#F8FAFC" opacity="0.9" />
    </linearGradient>
  </defs>
  
  <!-- 背景阴影 -->
  <rect x="18" y="13" width="62" height="78" rx="8" ry="8" fill="url(#shadowGradient)" />
  
  <!-- 主文档背景 -->
  <rect x="15" y="10" width="62" height="78" rx="8" ry="8" fill="url(#docGradient)" />
  
  <!-- 内容区域 -->
  <rect x="20" y="18" width="52" height="62" rx="4" ry="4" fill="url(#contentGradient)" />
  
  <!-- 日志图标点 -->
  <circle cx="26" cy="28" r="2.5" fill="#4F46E5" opacity="0.8" />
  <circle cx="26" cy="38" r="2.5" fill="#7C3AED" opacity="0.8" />
  <circle cx="26" cy="48" r="2.5" fill="#4F46E5" opacity="0.8" />
  <circle cx="26" cy="58" r="2.5" fill="#7C3AED" opacity="0.8" />
  <circle cx="26" cy="68" r="2.5" fill="#4F46E5" opacity="0.8" />
  
  <!-- 日志文本线条 -->
  <rect x="34" y="26" width="28" height="2" rx="1" fill="#6B7280" opacity="0.6" />
  <rect x="34" y="30" width="22" height="1.5" rx="0.75" fill="#9CA3AF" opacity="0.5" />
  
  <rect x="34" y="36" width="25" height="2" rx="1" fill="#6B7280" opacity="0.6" />
  <rect x="34" y="40" width="18" height="1.5" rx="0.75" fill="#9CA3AF" opacity="0.5" />
  
  <rect x="34" y="46" width="30" height="2" rx="1" fill="#6B7280" opacity="0.6" />
  <rect x="34" y="50" width="24" height="1.5" rx="0.75" fill="#9CA3AF" opacity="0.5" />
  
  <rect x="34" y="56" width="26" height="2" rx="1" fill="#6B7280" opacity="0.6" />
  <rect x="34" y="60" width="20" height="1.5" rx="0.75" fill="#9CA3AF" opacity="0.5" />
  
  <rect x="34" y="66" width="22" height="2" rx="1" fill="#6B7280" opacity="0.6" />
  <rect x="34" y="70" width="16" height="1.5" rx="0.75" fill="#9CA3AF" opacity="0.5" />
  
  <!-- 顶部标题栏 -->
  <rect x="20" y="18" width="52" height="6" rx="4" fill="#4F46E5" opacity="0.1" />
  <rect x="24" y="20" width="12" height="2" rx="1" fill="#4F46E5" opacity="0.7" />
</svg> 