<?xml version="1.0" encoding="UTF-8"?>
<svg xmlns="http://www.w3.org/2000/svg" width="232" height="164" viewBox="-20 -20 232 164" id="onedrive">
  <defs>
    <linearGradient id="grad" x1="0%" y1="0%" x2="100%" y2="100%">
      <stop offset="0%" stop-color="#1565C0"/>
      <stop offset="50%" stop-color="#2196F3"/>
      <stop offset="100%" stop-color="#64B5F6"/>
    </linearGradient>
    <filter id="shadow">
      <feGaussianBlur in="SourceAlpha" stdDeviation="2"/>
      <feOffset dx="2" dy="2" result="offsetblur"/>
      <feComponentTransfer>
        <feFuncA type="linear" slope="0.2"/>
      </feComponentTransfer>
      <feMerge>
        <feMergeNode/>
        <feMergeNode in="SourceGraphic"/>
      </feMerge>
    </filter>
  </defs>
  <path d="M97 0a55 55 0 1 1 0 110 55 55 0 0 1 0-110zm56 44c21.5 0 39 17.5 39 39 0 7-1.8 13.5-5 19.2L113 57.6l23.9-10.2c4.9-2.2 10.3-3.4 16.1-3.4zM48 26c10.5 0 20.1 3.3 28 9v-.1l37 22.7-104 45.3C3.3 95 0 84.5 0 74 0 47.5 21.5 26 48 26zm139 76.2c-6 10-17.3 19.3-29.4 20.8-8.1 1-44.7 1-110 0-15.8 0-29.8-8.3-38.6-20l104-45.3 74 44.5z" 
        fill="url(#grad)"
        filter="url(#shadow)"/>
</svg>
