<svg xmlns="http://www.w3.org/2000/svg" viewBox="0 0 48 48" width="48px" height="48px">
  <defs>
    <linearGradient id="blueGradient" x1="0%" y1="0%" x2="100%" y2="100%">
      <stop offset="0%" stop-color="#4FC3F7" />
      <stop offset="100%" stop-color="#2962FF" />
    </linearGradient>
    <linearGradient id="iconGradient" x1="0%" y1="0%" x2="100%" y2="100%">
      <stop offset="0%" stop-color="#2979FF" />
      <stop offset="100%" stop-color="#1565C0" />
    </linearGradient>
  </defs>
  <circle cx="24" cy="24" r="20" fill="url(#blueGradient)"/>
  <circle cx="24" cy="19" r="4" fill="url(#iconGradient)"/>
  <path fill="url(#iconGradient)" d="M24,26c0,0-9,0-9,5.727C15,35,16.636,35,24,35s9,0,9-3.273C33,26,24,26,24,26z"/>
  <circle cx="24" cy="18" r="4" fill="#fff"/>
  <path fill="#fff" d="M24,25c0,0-9,0-9,5.727C15,34,16.636,34,24,34s9,0,9-3.273C33,25,24,25,24,25z"/>
</svg>